<?xml version="1.0" encoding="utf-8"?>
<!-- Generator: Adobe Illustrator 25.1.0, SVG Export Plug-In . SVG Version: 6.00 Build 0)  -->
<svg version="1.1" id="圖層_1" xmlns="http://www.w3.org/2000/svg" xmlns:xlink="http://www.w3.org/1999/xlink" x="0px" y="0px"
	 viewBox="0 0 418 96.9" style="enable-background:new 0 0 418 96.9;" xml:space="preserve">
<path d="M132.7,36.2c-2.1,0-4.8-0.3-6.9-1v-5.3c1.6,0.9,4.3,1.7,6.9,1.7c2,0,3.8-0.4,3.8-2.3c0-4.3-10.9-1.6-10.9-10.1
	c0-5.6,5.4-7.1,10.1-7.1c2.2,0,4.4,0.3,5.9,0.9v4.9c-1.6-0.7-3.7-1.2-5.5-1.2c-1.6,0-4.1,0.1-4.1,2.2c0,3.8,10.9,1.3,10.9,9.7
	C142.9,34.5,137.9,36.2,132.7,36.2z M156.4,36.1c-6,0-10.1-2.9-10.1-9.2V12.4h6.1v13.4c0,3.1,0.8,5.7,4,5.7c3.2,0,4-2.6,4-5.7V12.4
	h6.2v14.5C166.6,33.2,162.4,36.1,156.4,36.1z M180.4,36.1c-6,0-10.1-2.9-10.1-9.2V12.4h6.1v13.4c0,3.1,0.8,5.7,4,5.7
	c3.2,0,4-2.6,4-5.7V12.4h6.2v14.5C190.6,33.2,186.4,36.1,180.4,36.1z M208.4,35.7l-8.1-16.1v16.1h-5.4V12.4h7.8l7.9,16v-16h5.5v23.3
	H208.4z M230.9,17v18.7h-6.2V17H219v-4.6h17.5V17H230.9z M250.1,36.1c-7.5,0-11.6-4.6-11.6-12c0-7.5,4-12.1,11.6-12.1
	c7.6,0,11.6,4.6,11.6,12.1C261.7,31.5,257.6,36.1,250.1,36.1z M250.1,16.6c-3.7,0-5.2,3.4-5.2,7.5c0,3.8,1.5,7.4,5.2,7.4
	c3.7,0,5.2-3.6,5.2-7.4C255.3,20,253.8,16.6,250.1,16.6z M281.8,36.1c-2.3,0-4.3-0.4-6.2-0.8v-5.1c1.8,0.9,3.8,1.3,5.8,1.3
	c2.3,0,4.7-0.8,4.7-3.8c0-2.6-2.7-3.4-5.2-3.4c-0.5,0-1,0-1.4,0v-3.5l5.1-4.3h-9.4v-4.2h16v4.1l-4.9,4.2c3.3,0.8,5.8,2.9,5.8,6.9
	C292.1,34.1,287,36.1,281.8,36.1z M19.6,55.9c-0.5,1.4-0.9,2.8-1.4,4l-0.7,1.7v22.9h-3V67.6c-0.7,1.1-1.4,2.1-2.1,3l-1.5-3.1
	c2.6-3.6,4.6-7.7,6-12.3L19.6,55.9z M26.6,75.7c-1.6,3.1-3.4,5.7-5.6,7.9l-2.5-1.8c2-2,3.8-4.4,5.4-7.4L26.6,75.7z M40.3,73h-9.1
	v11.5h-3V73h-9.1v-2.9h9.1V67h-7.3V56.3h17.5V67h-7.2v3.1h9.1V73z M35.4,64.1v-5H23.9v5H35.4z M40.5,82.3l-2.7,1.5
	c-1.1-2.4-2.8-5-5-8l2.6-1.4C37.4,76.9,39.1,79.5,40.5,82.3z M55.2,69.8c-1.5,0.9-2.6,1.4-3.4,1.7v10.2c0,1.8-1.1,2.7-3.2,2.7h-2.3
	l-1-3l3,0c0.3,0,0.5-0.2,0.5-0.5v-8.2c-1.8,0.7-2.9,1.1-3.5,1.4l-0.9-3c0.8-0.2,2.2-0.7,4.4-1.6v-6.2h-4.3v-2.8h4.3v-5.2h2.9v5.2
	h2.2v2.8h-2.2v4.9c1.1-0.5,2.1-1,2.9-1.4L55.2,69.8z M73.8,73.5h-3.4v7.8c0,0.9-0.2,1.5-0.5,2c-0.3,0.5-0.8,0.8-1.3,0.9
	c-0.5,0.2-1.4,0.2-2.5,0.2c-0.5,0-1.2,0-2.1,0l-1-3c0.8,0,1.5,0.1,2,0.1c1.3,0,2-0.1,2.2-0.2c0.2-0.1,0.3-0.3,0.3-0.6v-7.2H55v-2.7
	h12.6v-2h2.9v2h3.4V73.5z M73.3,61.4h-7.7v3.5h6.6v2.7h-16v-2.7h6.5v-3.5h-7.6v-2.7h7.6v-3.4h2.9v3.4h7.7V61.4z M63.7,79.1l-2.4,1.7
	c-1.2-1.6-2.8-3.1-4.6-4.7l2.4-1.7C61,76,62.5,77.6,63.7,79.1z M104.4,84.5h-3.1v-1.7H83.9v1.7h-3V59h8c0.6-1,1.2-2.3,1.7-3.8
	l3.2,0.5c-0.3,1.2-0.8,2.3-1.5,3.2h12.1V84.5z M101.4,65.8v-3.9H83.9v3.9H101.4z M101.4,72.7v-4.1H83.9v4.1H101.4z M101.4,79.9v-4.4
	H83.9v4.4H101.4z M117.9,77.9c-1.2,2.8-2.6,5.1-4,6.9l-2.7-1.8c1.6-1.8,2.9-3.9,4-6.4L117.9,77.9z M126.5,57.8
	c-0.6,4.8-2,8.6-4.1,11.4c-2.1,2.9-5.3,5.1-9.4,6.7l-1.5-2.4c4.4-1.8,7.4-4,9.2-6.8c-1.2-1.1-2.7-2.1-4.3-3.1
	c-1.3,1.5-2.3,2.6-3.2,3.4l-1.9-2.2c3.5-3.3,5.8-6.6,7-9.9l2.8,0.7c-0.2,0.6-0.4,1.3-0.8,2H126.5z M118.3,68.6
	c-1.8,0.9-3.5,1.7-5.2,2.4l-0.8-2.5c2.2-0.9,4-1.7,5.4-2.4L118.3,68.6z M123.1,60.5h-4.3c-0.1,0.3-0.3,0.7-0.6,1
	c0.9,0.6,2.2,1.4,3.8,2.6C122.6,62.7,123,61.5,123.1,60.5z M124.9,83.8l-3.1,1c-0.5-2.6-1.1-4.7-1.8-6.3l3-1
	C123.8,79.5,124.4,81.6,124.9,83.8z M140,65h-7.1c-0.6,4.5-3.5,8.2-8.6,11.1l-1.8-2.3c4.4-2.6,6.8-5.6,7.4-8.8h-3.6v-2.8h4
	c0.1-1.2,0.2-2.6,0.2-4c0-0.8,0-1.7-0.1-2.7h3.1c0,2.8-0.1,5.1-0.2,6.8h6.7V65z M132.9,83.6l-3.1,1c-0.6-2-1.4-4.1-2.5-6.2l3-0.9
	C131.4,79.6,132.3,81.7,132.9,83.6z M140.6,74l-2.4,2c-1.4-2.1-3.2-4.4-5.6-6.8l2.2-1.9C137.2,69.6,139.1,71.8,140.6,74z
	 M140.6,83.5l-3.1,1.2c-0.7-1.9-1.7-4-3.2-6.3l2.9-1.1C138.5,79.1,139.6,81.1,140.6,83.5z M139.6,60l-2.5,1.5
	c-0.7-1.4-1.5-2.7-2.5-4.1l2.3-1.6C137.8,57,138.7,58.4,139.6,60z M156.3,80c-2.6,1.9-5.9,3.5-10,4.9l-1.7-2.4
	c3.7-1.2,6.7-2.6,9.1-4.2L156.3,80z M173.8,77.7h-29v-2.7h2.2l-0.3-17.5c2.2-0.5,4.3-1.2,6.4-2.2l1.5,2.5c-1.4,0.7-3.1,1.3-4.9,1.8
	l0,3h3.8v2.7h-3.7l0,3.4h3.7v2.7h-3.7l0.1,3.6h18.6l0.1-3.6h-3.5v-2.7h3.5l0.1-3.4h-3.6v-2.7h3.7l0.1-3.3h-3.8v-2.8h6.8l-0.4,18.4
	h2.3V77.7z M158.5,66.5c-0.5,2.8-1.3,5.3-2.5,7.4l-2.3-1.5c1.1-2.2,1.8-4.4,2.2-6.4L158.5,66.5z M163.9,59.9h-5.4l-0.3,2.4h5.7
	c0,1.9-0.1,3.9-0.2,6.2c-0.1,2.2-0.3,3.6-0.7,4.1c-0.3,0.5-0.7,0.8-1.2,1.1c-0.5,0.2-1.5,0.3-2.9,0.2l-0.9-2.7
	c0.4,0.1,0.9,0.1,1.4,0.1c0.5,0,0.9-0.1,1-0.2c0.1-0.1,0.2-0.2,0.3-0.4c0-0.1,0.1-0.8,0.2-2.2s0.2-2.5,0.2-3.7h-6l1.2-9.4h2.9
	l-0.2,1.9h5V59.9z M174,82.4l-1.9,2.4c-3.2-1.8-6.4-3.2-9.6-4.2l1.8-2.5C167.8,79.3,171,80.7,174,82.4z M194.1,72.3l-1.7,2.6
	c-1.4-1.8-2.8-3.3-4.3-4.6v14.1h-2.9V70.8c-1.9,3.3-3.9,6-6.1,8l-1.4-2.9c3.3-3.2,5.7-6.5,7.2-10h-6.6v-3h6.9v-3.5
	c-2,0.3-3.7,0.4-5.1,0.4l-1.3-2.8c5-0.1,9.3-0.8,12.9-2l1.6,2.6c-1.4,0.5-3.2,0.9-5.2,1.3v4h5.4v3h-5.4v1
	C190.3,68.6,192.3,70.4,194.1,72.3z M206.3,84.5h-3v-2.6h-5.7v2.6h-2.9v-26h11.5V84.5z M203.4,78.9V61.4h-5.7v17.5H203.4z
	 M221.6,61.1h-10.2v-2.6h4.1c-0.1-0.3-0.4-1.1-1-2.5l2.9-1c0.6,1.3,1,2.5,1.3,3.5h2.9V61.1z M220.9,66.1h-8.9v-2.7h8.9V66.1z
	 M220.9,70.9h-8.9v-2.7h8.9V70.9z M221,84.1h-2.8v-1.5h-3.2v1.9h-2.8V73.1h8.9V84.1z M218.2,79.8v-4h-3.2v4H218.2z M230.1,66.9
	c-3.2,1.4-5.6,2.3-7.3,2.7l-0.9-2.4c0.5-0.3,0.7-0.8,0.7-1.4V55.4h2.8v3.4h4.2v2.8h-4.2v4.3c0.7-0.2,2.1-0.8,4.1-1.7L230.1,66.9z
	 M239,84.5h-2.9V83h-9.7v1.5h-2.9V70.6h3.9c0.5-0.8,0.8-1.5,1-2.3l3.3,0.5c-0.1,0.4-0.4,1-0.8,1.7h8V84.5z M236.2,75.6v-2.4h-9.7
	v2.4H236.2z M236.2,80.4V78h-9.7v2.4H236.2z M240.6,63.8c-0.2,1.9-0.6,3.2-1.2,3.8c-0.6,0.6-1.7,0.9-3.3,0.9c-1.8,0-2.9-0.1-3.4-0.2
	c-0.4-0.1-0.8-0.4-1.2-0.8c-0.3-0.4-0.5-1.1-0.5-1.9V55.4h2.9v3.4h5.6v2.7H234v3.3c0,0.7,0.5,1.1,1.6,1.1c0.8,0,1.4-0.1,1.7-0.4
	c0.3-0.3,0.5-1.2,0.6-2.7L240.6,63.8z M257.3,84.2h-2.9V82h-6v2.5h-2.9V60.3h3c0.8-1.5,1.5-3.2,2-5.1l3.1,0.5
	c-0.2,1.1-0.7,2.6-1.6,4.6h5.4V84.2z M254.5,69.3v-6.2h-6v6.2H254.5z M254.5,79.1v-7h-6v7H254.5z M273.5,60.4
	c0,3.2-0.1,7.3-0.3,12.4c-0.2,5.1-0.5,8.1-0.9,9c-0.4,0.9-1,1.6-1.8,2s-2.8,0.7-6,0.7l-1.1-2.9l4.5,0c0.4,0,0.9-0.2,1.4-0.5
	c0.5-0.4,0.8-2.8,1.1-7.2c0.2-4.5,0.4-8,0.3-10.5h-6.7c-1,2.6-2.2,4.9-3.5,6.8l-2.3-2c2.4-3.9,4.1-8.2,5-12.9l2.9,0.6
	c-0.2,1.1-0.6,2.7-1.2,4.7H273.5z M268.6,75.3L266,77c-1.4-2.9-3-5.3-4.6-7.2l2.6-1.6C266.2,71,267.8,73.3,268.6,75.3z M307.5,81.4
	l-0.8,2.7c-2.3,0.1-4.4,0.1-6.5,0.1c-5.8,0-9.7-0.3-11.6-0.8c-1.9-0.5-3.7-1.4-5.3-2.8c-1,1.5-2,2.9-3.1,4.1l-2.3-1.8
	c2.9-3.3,4.8-6.5,5.5-9.6h-4.9v-2.8c1.8-1.8,3.3-3.7,4.3-5.7H278V62h8v2.8c-0.9,2-2.2,3.9-3.9,5.7h4.2v2.8c-0.4,1.7-1,3.4-1.8,5
	c0.8,0.9,2,1.6,3.4,2.2s3.2,0.8,5.3,0.9c2.2,0.1,4.4,0.1,6.8,0.1C302.6,81.5,305.1,81.5,307.5,81.4z M286.2,59.3l-2.1,2
	c-1.6-1.6-3.4-3-5.3-4.3l2.1-2.1C283.1,56.3,284.9,57.8,286.2,59.3z M307.1,78h-8.6v2.5h-2.9V78h-8.8v-2.4h8.8v-1.6h-7.2v-9.7h7.2
	v-1.5h-4.1v-2.3h4.1v-1.3h2.9v1.3h4.2v2.3h-4.2v1.5h7.1v9.7h-7.1v1.6h8.6V78z M306.6,61.5h-2.9v-3.1h-13.1v3.1h-3v-5.6h18.9V61.5z
	 M295.7,68.2v-1.6h-4.4v1.6H295.7z M295.7,71.8v-1.6h-4.4v1.6H295.7z M302.8,68.2v-1.6h-4.3v1.6H302.8z M302.8,71.8v-1.6h-4.3v1.6
	H302.8z M327.6,63.1h-6.4V65h5.7v9.8h-5.7v1.9h5.7V79h-5.7v2.1c2.1-0.2,4.1-0.5,5.9-0.8l0.1,2.4c-4.8,0.8-9.9,1.5-15.3,2l-0.6-2.4
	l7.2-0.7V79h-5.8v-2.3h5.8v-1.9h-5.8V65h5.8v-1.9h-6.7v-2.4h6.7v-1.9c-1.4,0.2-3.2,0.3-5.2,0.4l-0.7-2.3c5.1-0.2,9.6-0.7,13.6-1.6
	l1.1,2.1c-1.6,0.4-3.6,0.7-6.1,1v2.2h6.4V63.1z M318.5,68.8v-1.7h-3.1v1.7H318.5z M318.5,72.6v-1.7h-3.1v1.7H318.5z M324.2,68.8
	v-1.7h-3v1.7H324.2z M324.2,72.6v-1.7h-3v1.7H324.2z M339.9,61.6c0,4.6-0.1,9.1-0.3,13.4c-0.2,4.3-0.4,6.8-0.6,7.5
	c-0.2,0.7-0.6,1.2-1.1,1.6s-1.4,0.5-2.7,0.5c-0.6,0-1.2,0-1.8-0.1l-0.8-2.8c0.8,0.1,1.5,0.1,2,0.1c1,0,1.5-0.1,1.7-0.4
	c0.2-0.2,0.4-2.2,0.6-6c0.2-3.7,0.3-7.4,0.2-11.1h-2.9c-0.1,8.1-1.5,14.9-4.4,20.3l-2.6-1.3c3-5.3,4.3-11.7,4.1-19h-2.9v-2.8h3
	c0.1-2.7,0.1-4.8,0-6.1h2.9c0,2.1,0,4.1-0.1,6.1H339.9z M373.6,83.6h-28.9v-2.9h13.4v-7.3H348v-2.9h10.1v-6.4h-7.5
	c-1.2,2.1-2.6,4-4.1,5.5l-2.3-2.2c3-3.1,5.1-6.9,6.1-11.4l3,0.7c-0.4,1.4-0.8,2.9-1.4,4.5h6.1v-5.8h3.1v5.8h12v2.9h-12v6.4h10.6v2.9
	h-10.6v7.3h12.4V83.6z M385.4,67.8l-1.8,2.4c-1.7-1.5-3.6-3-5.8-4.3l1.8-2.4C382.1,65,384.1,66.5,385.4,67.8z M385.7,73.2
	c-1.5,4.4-3.3,8.2-5.2,11.3l-2.5-1.8c1.9-3.1,3.6-6.7,5.1-10.9L385.7,73.2z M386.2,60.2l-2.2,2.2c-1.5-1.7-3.4-3.4-5.7-5.1l2.1-2.1
	C383,57.1,384.9,58.8,386.2,60.2z M407.1,66.7h-9.2v4.6h7.6v13.1h-3v-1.6h-12v1.6h-3V71.3h7.5v-4.6h-9.2l0-2.8h9.2v-4.4
	c-2.6,0.2-5.1,0.4-7.5,0.5l-1-2.8c7,0,13-0.7,18.2-2.1l1.5,2.4c-2.3,0.7-5,1.3-8.2,1.7v4.7h9.2V66.7z M402.4,80v-5.8h-12V80H402.4z"
	/>
</svg>
